<?xml version="1.0" encoding="utf-8" standalone="no"?>
<!DOCTYPE svg PUBLIC "-//W3C//DTD SVG 1.1//EN"
  "http://www.w3.org/Graphics/SVG/1.1/DTD/svg11.dtd">
<svg xmlns:xlink="http://www.w3.org/1999/xlink" width="510.23622pt" height="249.448819pt" viewBox="0 0 510.23622 249.448819" xmlns="http://www.w3.org/2000/svg" version="1.1">
 <metadata>
  <rdf:RDF xmlns:dc="http://purl.org/dc/elements/1.1/" xmlns:cc="http://creativecommons.org/ns#" xmlns:rdf="http://www.w3.org/1999/02/22-rdf-syntax-ns#">
   <cc:Work>
    <dc:type rdf:resource="http://purl.org/dc/dcmitype/StillImage"/>
    <dc:date>2026-10-01T14:54:59.656765</dc:date>
    <dc:format>image/svg+xml</dc:format>
    <dc:creator>
     <cc:Agent>
      <dc:title>Matplotlib v3.11.2, https://matplotlib.org/</dc:title>
     </cc:Agent>
    </dc:creator>
   </cc:Work>
  </rdf:RDF>
 </metadata>
 <defs>
  <style type="text/css">*{stroke-linejoin: round; stroke-linecap: butt}</style>
 </defs>
 <g id="figure_1">
  <g id="patch_1">
   <path d="M 0 249.448819 
L 510.23622 249.448819 
L 510.23622 0 
L 0 0 
z
" style="fill: #ffffff"/>
  </g>
  <g id="axes_1">
   <g id="patch_2">
    <path d="M 53.858268 198.425197 
L 229.606299 198.425197 
L 229.606299 28.346457 
L 53.858268 28.346457 
z
" style="fill: #ffffff"/>
   </g>
   <g id="matplotlib.axis_1">
    <g id="xtick_1">
     <g id="line2d_1">
      <defs>
       <path id="m565490e154" d="M 0 0 
L 0 2.3 
" style="stroke: #000000; stroke-width: 0.6"/>
      </defs>
      <g>
       <use xlink:href="#m565490e154" x="61.846815" y="198.425197" style="stroke: #000000; stroke-width: 0.6"/>
      </g>
     </g>
     <g id="text_1">
      <text style="font-size: 6px; font-family: 'Arial'; text-anchor: middle" x="61.846815" y="207.093361" transform="rotate(-0 61.846815 207.093361)">3.0</text>
     </g>
    </g>
    <g id="xtick_2">
     <g id="line2d_2">
      <g>
       <use xlink:href="#m565490e154" x="99.887514" y="198.425197" style="stroke: #000000; stroke-width: 0.6"/>
      </g>
     </g>
     <g id="text_2">
      <text style="font-size: 6px; font-family: 'Arial'; text-anchor: middle" x="99.887514" y="207.093361" transform="rotate(-0 99.887514 207.093361)">3.5</text>
     </g>
    </g>
    <g id="xtick_3">
     <g id="line2d_3">
      <g>
       <use xlink:href="#m565490e154" x="137.928214" y="198.425197" style="stroke: #000000; stroke-width: 0.6"/>
      </g>
     </g>
     <g id="text_3">
      <text style="font-size: 6px; font-family: 'Arial'; text-anchor: middle" x="137.928214" y="207.093361" transform="rotate(-0 137.928214 207.093361)">4.0</text>
     </g>
    </g>
    <g id="xtick_4">
     <g id="line2d_4">
      <g>
       <use xlink:href="#m565490e154" x="175.968913" y="198.425197" style="stroke: #000000; stroke-width: 0.6"/>
      </g>
     </g>
     <g id="text_4">
      <text style="font-size: 6px; font-family: 'Arial'; text-anchor: middle" x="175.968913" y="207.093361" transform="rotate(-0 175.968913 207.093361)">4.5</text>
     </g>
    </g>
    <g id="xtick_5">
     <g id="line2d_5">
      <g>
       <use xlink:href="#m565490e154" x="214.009612" y="198.425197" style="stroke: #000000; stroke-width: 0.6"/>
      </g>
     </g>
     <g id="text_5">
      <text style="font-size: 6px; font-family: 'Arial'; text-anchor: middle" x="214.009612" y="207.093361" transform="rotate(-0 214.009612 207.093361)">5.0</text>
     </g>
    </g>
    <g id="text_6">
     <text style="font-size: 6.5px; font-family: 'Arial'; text-anchor: middle; fill: #202124" x="141.732283" y="217.088234" transform="rotate(-0 141.732283 217.088234)">Voltage (V)</text>
    </g>
   </g>
   <g id="matplotlib.axis_2">
    <g id="ytick_1">
     <g id="line2d_6">
      <defs>
       <path id="m68cef35f3c" d="M 0 0 
L -2.3 0 
" style="stroke: #000000; stroke-width: 0.6"/>
      </defs>
      <g>
       <use xlink:href="#m68cef35f3c" x="53.858268" y="191.128473" style="stroke: #000000; stroke-width: 0.6"/>
      </g>
     </g>
     <g id="text_7">
      <text style="font-size: 6px; font-family: 'Arial'; text-anchor: end" x="49.558268" y="193.312555" transform="rotate(-0 49.558268 193.312555)">0</text>
     </g>
    </g>
    <g id="ytick_2">
     <g id="line2d_7">
      <g>
       <use xlink:href="#m68cef35f3c" x="53.858268" y="164.00177" style="stroke: #000000; stroke-width: 0.6"/>
      </g>
     </g>
     <g id="text_8">
      <text style="font-size: 6px; font-family: 'Arial'; text-anchor: end" x="49.558268" y="166.185852" transform="rotate(-0 49.558268 166.185852)">5</text>
     </g>
    </g>
    <g id="ytick_3">
     <g id="line2d_8">
      <g>
       <use xlink:href="#m68cef35f3c" x="53.858268" y="136.875067" style="stroke: #000000; stroke-width: 0.6"/>
      </g>
     </g>
     <g id="text_9">
      <text style="font-size: 6px; font-family: 'Arial'; text-anchor: end" x="49.558268" y="139.059149" transform="rotate(-0 49.558268 139.059149)">10</text>
     </g>
    </g>
    <g id="ytick_4">
     <g id="line2d_9">
      <g>
       <use xlink:href="#m68cef35f3c" x="53.858268" y="109.748364" style="stroke: #000000; stroke-width: 0.6"/>
      </g>
     </g>
     <g id="text_10">
      <text style="font-size: 6px; font-family: 'Arial'; text-anchor: end" x="49.558268" y="111.932446" transform="rotate(-0 49.558268 111.932446)">15</text>
     </g>
    </g>
    <g id="ytick_5">
     <g id="line2d_10">
      <g>
       <use xlink:href="#m68cef35f3c" x="53.858268" y="82.621661" style="stroke: #000000; stroke-width: 0.6"/>
      </g>
     </g>
     <g id="text_11">
      <text style="font-size: 6px; font-family: 'Arial'; text-anchor: end" x="49.558268" y="84.805743" transform="rotate(-0 49.558268 84.805743)">20</text>
     </g>
    </g>
    <g id="ytick_6">
     <g id="line2d_11">
      <g>
       <use xlink:href="#m68cef35f3c" x="53.858268" y="55.494958" style="stroke: #000000; stroke-width: 0.6"/>
      </g>
     </g>
     <g id="text_12">
      <text style="font-size: 6px; font-family: 'Arial'; text-anchor: end" x="49.558268" y="57.679041" transform="rotate(-0 49.558268 57.679041)">25</text>
     </g>
    </g>
    <g id="ytick_7">
     <g id="line2d_12">
      <g>
       <use xlink:href="#m68cef35f3c" x="53.858268" y="28.368256" style="stroke: #000000; stroke-width: 0.6"/>
      </g>
     </g>
     <g id="text_13">
      <text style="font-size: 6px; font-family: 'Arial'; text-anchor: end" x="49.558268" y="30.552338" transform="rotate(-0 49.558268 30.552338)">30</text>
     </g>
    </g>
    <g id="text_14">
     <!-- Current density (µA/cm$^2$) -->
     <g style="fill: #202124" transform="translate(37.455143 149.168327) rotate(-90)">
      <text>
       <tspan x="0" y="-0.367188" style="font-size: 6.5px; font-family: 'Arial'; fill: #202124">C</tspan>
       <tspan x="4.694092" y="-0.367188" style="font-size: 6.5px; font-family: 'Arial'; fill: #202124">u</tspan>
       <tspan x="8.309082" y="-0.367188" style="font-size: 6.5px; font-family: 'Arial'; fill: #202124">r</tspan>
       <tspan x="10.473633" y="-0.367188" style="font-size: 6.5px; font-family: 'Arial'; fill: #202124">r</tspan>
       <tspan x="12.638184" y="-0.367188" style="font-size: 6.5px; font-family: 'Arial'; fill: #202124">e</tspan>
       <tspan x="16.253174" y="-0.367188" style="font-size: 6.5px; font-family: 'Arial'; fill: #202124">n</tspan>
       <tspan x="19.868164" y="-0.367188" style="font-size: 6.5px; font-family: 'Arial'; fill: #202124">t</tspan>
       <tspan x="21.674072" y="-0.367188" style="font-size: 6.5px; font-family: 'Arial'; fill: #202124"> </tspan>
       <tspan x="23.47998" y="-0.367188" style="font-size: 6.5px; font-family: 'Arial'; fill: #202124">d</tspan>
       <tspan x="27.094971" y="-0.367188" style="font-size: 6.5px; font-family: 'Arial'; fill: #202124">e</tspan>
       <tspan x="30.709961" y="-0.367188" style="font-size: 6.5px; font-family: 'Arial'; fill: #202124">n</tspan>
       <tspan x="34.324951" y="-0.367188" style="font-size: 6.5px; font-family: 'Arial'; fill: #202124">s</tspan>
       <tspan x="37.574951" y="-0.367188" style="font-size: 6.5px; font-family: 'Arial'; fill: #202124">i</tspan>
       <tspan x="39.019043" y="-0.367188" style="font-size: 6.5px; font-family: 'Arial'; fill: #202124">t</tspan>
       <tspan x="40.824951" y="-0.367188" style="font-size: 6.5px; font-family: 'Arial'; fill: #202124">y</tspan>
       <tspan x="44.074951" y="-0.367188" style="font-size: 6.5px; font-family: 'Arial'; fill: #202124"> </tspan>
       <tspan x="45.880859" y="-0.367188" style="font-size: 6.5px; font-family: 'Arial'; fill: #202124">(</tspan>
       <tspan x="48.04541" y="-0.367188" style="font-size: 6.5px; font-family: 'Arial'; fill: #202124">µ</tspan>
       <tspan x="51.790527" y="-0.367188" style="font-size: 6.5px; font-family: 'Arial'; fill: #202124">A</tspan>
       <tspan x="56.125977" y="-0.367188" style="font-size: 6.5px; font-family: 'Arial'; fill: #202124">/</tspan>
       <tspan x="57.931885" y="-0.367188" style="font-size: 6.5px; font-family: 'Arial'; fill: #202124">c</tspan>
       <tspan x="61.181885" y="-0.367188" style="font-size: 6.5px; font-family: 'Arial'; fill: #202124">m</tspan>
       <tspan x="69.354741" y="-0.367188" style="font-size: 6.5px; font-family: 'Arial'; fill: #202124">)</tspan>
       <tspan x="66.655498" y="-2.729687" style="font-size: 4.55px; font-family: 'Arial'; fill: #202124">2</tspan>
      </text>
     </g>
    </g>
   </g>
   <g id="line2d_13">
    <path d="M 61.846815 190.693713 
L 127.676711 190.580017 
L 142.266039 190.3439 
L 151.517809 189.981472 
L 158.278717 189.496628 
L 163.616276 188.890295 
L 167.886323 188.190767 
L 171.444696 187.404668 
L 174.647232 186.488189 
L 177.49393 185.46126 
L 180.340628 184.183612 
L 182.831489 182.812232 
L 184.966513 181.409037 
L 187.101536 179.756045 
L 189.23656 177.808787 
L 191.371584 175.514876 
L 193.15077 173.294277 
L 194.929956 170.748829 
L 196.709143 167.831011 
L 198.488329 164.486348 
L 200.267516 160.6524 
L 202.046702 156.257588 
L 203.825888 151.219865 
L 205.605075 145.44518 
L 207.384261 138.825724 
L 209.163448 131.237916 
L 210.942634 122.540098 
L 212.72182 112.569887 
L 214.501007 101.141147 
L 216.280193 88.040512 
L 218.05938 73.023402 
L 219.838566 55.809458 
L 221.617752 36.077309 
L 221.617752 36.077309 
" clip-path="url(#p7cee6a7ed2)" style="fill: none; stroke: #205c85; stroke-width: 0.9; stroke-linecap: square"/>
   </g>
   <g id="line2d_14">
    <path d="M 61.846815 190.694174 
L 140.131016 190.584151 
L 155.076181 190.347211 
L 164.327951 189.988207 
L 171.088859 189.507944 
L 176.426418 188.907339 
L 180.696465 188.21442 
L 184.254838 187.435747 
L 187.457374 186.527926 
L 190.304072 185.510698 
L 193.15077 184.245121 
L 195.641631 182.886696 
L 197.776655 181.496758 
L 199.911678 179.859382 
L 202.046702 177.930519 
L 204.181726 175.65828 
L 205.960912 173.458659 
L 207.740098 170.937258 
L 209.519285 168.047005 
L 211.298471 164.73394 
L 213.077658 160.936211 
L 214.856844 156.582918 
L 216.63603 151.592787 
L 218.415217 145.872657 
L 220.194403 139.315735 
L 221.617752 133.386029 
L 221.617752 133.386029 
" clip-path="url(#p7cee6a7ed2)" style="fill: none; stroke: #348678; stroke-width: 0.9; stroke-linecap: square"/>
   </g>
   <g id="line2d_15">
    <path d="M 61.846815 190.694345 
L 152.941158 190.585193 
L 167.886323 190.350492 
L 177.138093 189.994879 
L 183.899001 189.519153 
L 189.23656 188.924222 
L 193.506607 188.237849 
L 197.420817 187.377177 
L 200.623353 186.453039 
L 203.470051 185.417528 
L 206.316749 184.129204 
L 208.80761 182.746364 
L 210.942634 181.331443 
L 213.077658 179.664638 
L 215.212681 177.701107 
L 217.347705 175.388028 
L 219.126891 173.148872 
L 220.906078 170.582153 
L 221.617752 169.453239 
L 221.617752 169.453239 
" clip-path="url(#p7cee6a7ed2)" style="fill: none; stroke: #b45a48; stroke-width: 0.9; stroke-linecap: square"/>
   </g>
   <g id="patch_3">
    <path d="M 53.858268 198.425197 
L 53.858268 28.346457 
" style="fill: none; stroke: #202124; stroke-width: 0.6; stroke-linejoin: miter; stroke-linecap: square"/>
   </g>
   <g id="patch_4">
    <path d="M 229.606299 198.425197 
L 229.606299 28.346457 
" style="fill: none; stroke: #202124; stroke-width: 0.6; stroke-linejoin: miter; stroke-linecap: square"/>
   </g>
   <g id="patch_5">
    <path d="M 53.858268 198.425197 
L 229.606299 198.425197 
" style="fill: none; stroke: #202124; stroke-width: 0.6; stroke-linejoin: miter; stroke-linecap: square"/>
   </g>
   <g id="patch_6">
    <path d="M 53.858268 28.346457 
L 229.606299 28.346457 
" style="fill: none; stroke: #202124; stroke-width: 0.6; stroke-linejoin: miter; stroke-linecap: square"/>
   </g>
   <g id="legend_1">
    <g id="line2d_16">
     <path d="M 59.258268 36.014621 
L 65.258268 36.014621 
L 71.258268 36.014621 
" style="fill: none; stroke: #205c85; stroke-width: 0.9; stroke-linecap: square"/>
    </g>
    <g id="text_15">
     <text style="font-size: 6px; font-family: 'Arial'; text-anchor: start; fill: #202124" x="76.058268" y="38.114621" transform="rotate(-0 76.058268 38.114621)">A</text>
    </g>
    <g id="line2d_17">
     <path d="M 59.258268 44.64548 
L 65.258268 44.64548 
L 71.258268 44.64548 
" style="fill: none; stroke: #348678; stroke-width: 0.9; stroke-linecap: square"/>
    </g>
    <g id="text_16">
     <text style="font-size: 6px; font-family: 'Arial'; text-anchor: start; fill: #202124" x="76.058268" y="46.74548" transform="rotate(-0 76.058268 46.74548)">B</text>
    </g>
    <g id="line2d_18">
     <path d="M 59.258268 53.27634 
L 65.258268 53.27634 
L 71.258268 53.27634 
" style="fill: none; stroke: #b45a48; stroke-width: 0.9; stroke-linecap: square"/>
    </g>
    <g id="text_17">
     <text style="font-size: 6px; font-family: 'Arial'; text-anchor: start; fill: #202124" x="76.058268" y="55.37634" transform="rotate(-0 76.058268 55.37634)">C</text>
    </g>
   </g>
  </g>
  <g id="axes_2">
   <g id="patch_7">
    <path d="M 303.307087 198.425197 
L 479.055118 198.425197 
L 479.055118 28.346457 
L 303.307087 28.346457 
z
" style="fill: #ffffff"/>
   </g>
   <g id="matplotlib.axis_3">
    <g id="xtick_6">
     <g id="line2d_19">
      <g>
       <use xlink:href="#m565490e154" x="303.307087" y="198.425197" style="stroke: #000000; stroke-width: 0.6"/>
      </g>
     </g>
     <g id="text_18">
      <text style="font-size: 6px; font-family: 'Arial'; text-anchor: middle" x="303.307087" y="207.093361" transform="rotate(-0 303.307087 207.093361)">4.0</text>
     </g>
    </g>
    <g id="xtick_7">
     <g id="line2d_20">
      <g>
       <use xlink:href="#m565490e154" x="342.362205" y="198.425197" style="stroke: #000000; stroke-width: 0.6"/>
      </g>
     </g>
     <g id="text_19">
      <text style="font-size: 6px; font-family: 'Arial'; text-anchor: middle" x="342.362205" y="207.093361" transform="rotate(-0 342.362205 207.093361)">4.2</text>
     </g>
    </g>
    <g id="xtick_8">
     <g id="line2d_21">
      <g>
       <use xlink:href="#m565490e154" x="381.417323" y="198.425197" style="stroke: #000000; stroke-width: 0.6"/>
      </g>
     </g>
     <g id="text_20">
      <text style="font-size: 6px; font-family: 'Arial'; text-anchor: middle" x="381.417323" y="207.093361" transform="rotate(-0 381.417323 207.093361)">4.4</text>
     </g>
    </g>
    <g id="xtick_9">
     <g id="line2d_22">
      <g>
       <use xlink:href="#m565490e154" x="420.472441" y="198.425197" style="stroke: #000000; stroke-width: 0.6"/>
      </g>
     </g>
     <g id="text_21">
      <text style="font-size: 6px; font-family: 'Arial'; text-anchor: middle" x="420.472441" y="207.093361" transform="rotate(-0 420.472441 207.093361)">4.6</text>
     </g>
    </g>
    <g id="xtick_10">
     <g id="line2d_23">
      <g>
       <use xlink:href="#m565490e154" x="459.527559" y="198.425197" style="stroke: #000000; stroke-width: 0.6"/>
      </g>
     </g>
     <g id="text_22">
      <text style="font-size: 6px; font-family: 'Arial'; text-anchor: middle" x="459.527559" y="207.093361" transform="rotate(-0 459.527559 207.093361)">4.8</text>
     </g>
    </g>
    <g id="text_23">
     <text style="font-size: 6.5px; font-family: 'Arial'; text-anchor: middle; fill: #202124" x="391.181102" y="217.088234" transform="rotate(-0 391.181102 217.088234)">Voltage (V)</text>
    </g>
   </g>
   <g id="matplotlib.axis_4">
    <g id="ytick_8">
     <g id="line2d_24">
      <g>
       <use xlink:href="#m68cef35f3c" x="303.307087" y="191.128473" style="stroke: #000000; stroke-width: 0.6"/>
      </g>
     </g>
     <g id="text_24">
      <text style="font-size: 6px; font-family: 'Arial'; text-anchor: end" x="299.007087" y="193.312555" transform="rotate(-0 299.007087 193.312555)">0</text>
     </g>
    </g>
    <g id="ytick_9">
     <g id="line2d_25">
      <g>
       <use xlink:href="#m68cef35f3c" x="303.307087" y="164.00177" style="stroke: #000000; stroke-width: 0.6"/>
      </g>
     </g>
     <g id="text_25">
      <text style="font-size: 6px; font-family: 'Arial'; text-anchor: end" x="299.007087" y="166.185852" transform="rotate(-0 299.007087 166.185852)">5</text>
     </g>
    </g>
    <g id="ytick_10">
     <g id="line2d_26">
      <g>
       <use xlink:href="#m68cef35f3c" x="303.307087" y="136.875067" style="stroke: #000000; stroke-width: 0.6"/>
      </g>
     </g>
     <g id="text_26">
      <text style="font-size: 6px; font-family: 'Arial'; text-anchor: end" x="299.007087" y="139.059149" transform="rotate(-0 299.007087 139.059149)">10</text>
     </g>
    </g>
    <g id="ytick_11">
     <g id="line2d_27">
      <g>
       <use xlink:href="#m68cef35f3c" x="303.307087" y="109.748364" style="stroke: #000000; stroke-width: 0.6"/>
      </g>
     </g>
     <g id="text_27">
      <text style="font-size: 6px; font-family: 'Arial'; text-anchor: end" x="299.007087" y="111.932446" transform="rotate(-0 299.007087 111.932446)">15</text>
     </g>
    </g>
    <g id="ytick_12">
     <g id="line2d_28">
      <g>
       <use xlink:href="#m68cef35f3c" x="303.307087" y="82.621661" style="stroke: #000000; stroke-width: 0.6"/>
      </g>
     </g>
     <g id="text_28">
      <text style="font-size: 6px; font-family: 'Arial'; text-anchor: end" x="299.007087" y="84.805743" transform="rotate(-0 299.007087 84.805743)">20</text>
     </g>
    </g>
    <g id="ytick_13">
     <g id="line2d_29">
      <g>
       <use xlink:href="#m68cef35f3c" x="303.307087" y="55.494958" style="stroke: #000000; stroke-width: 0.6"/>
      </g>
     </g>
     <g id="text_29">
      <text style="font-size: 6px; font-family: 'Arial'; text-anchor: end" x="299.007087" y="57.679041" transform="rotate(-0 299.007087 57.679041)">25</text>
     </g>
    </g>
    <g id="ytick_14">
     <g id="line2d_30">
      <g>
       <use xlink:href="#m68cef35f3c" x="303.307087" y="28.368256" style="stroke: #000000; stroke-width: 0.6"/>
      </g>
     </g>
     <g id="text_30">
      <text style="font-size: 6px; font-family: 'Arial'; text-anchor: end" x="299.007087" y="30.552338" transform="rotate(-0 299.007087 30.552338)">30</text>
     </g>
    </g>
    <g id="text_31">
     <!-- Current density (µA/cm$^2$) -->
     <g style="fill: #202124" transform="translate(286.903962 149.168327) rotate(-90)">
      <text>
       <tspan x="0" y="-0.367188" style="font-size: 6.5px; font-family: 'Arial'; fill: #202124">C</tspan>
       <tspan x="4.694092" y="-0.367188" style="font-size: 6.5px; font-family: 'Arial'; fill: #202124">u</tspan>
       <tspan x="8.309082" y="-0.367188" style="font-size: 6.5px; font-family: 'Arial'; fill: #202124">r</tspan>
       <tspan x="10.473633" y="-0.367188" style="font-size: 6.5px; font-family: 'Arial'; fill: #202124">r</tspan>
       <tspan x="12.638184" y="-0.367188" style="font-size: 6.5px; font-family: 'Arial'; fill: #202124">e</tspan>
       <tspan x="16.253174" y="-0.367188" style="font-size: 6.5px; font-family: 'Arial'; fill: #202124">n</tspan>
       <tspan x="19.868164" y="-0.367188" style="font-size: 6.5px; font-family: 'Arial'; fill: #202124">t</tspan>
       <tspan x="21.674072" y="-0.367188" style="font-size: 6.5px; font-family: 'Arial'; fill: #202124"> </tspan>
       <tspan x="23.47998" y="-0.367188" style="font-size: 6.5px; font-family: 'Arial'; fill: #202124">d</tspan>
       <tspan x="27.094971" y="-0.367188" style="font-size: 6.5px; font-family: 'Arial'; fill: #202124">e</tspan>
       <tspan x="30.709961" y="-0.367188" style="font-size: 6.5px; font-family: 'Arial'; fill: #202124">n</tspan>
       <tspan x="34.324951" y="-0.367188" style="font-size: 6.5px; font-family: 'Arial'; fill: #202124">s</tspan>
       <tspan x="37.574951" y="-0.367188" style="font-size: 6.5px; font-family: 'Arial'; fill: #202124">i</tspan>
       <tspan x="39.019043" y="-0.367188" style="font-size: 6.5px; font-family: 'Arial'; fill: #202124">t</tspan>
       <tspan x="40.824951" y="-0.367188" style="font-size: 6.5px; font-family: 'Arial'; fill: #202124">y</tspan>
       <tspan x="44.074951" y="-0.367188" style="font-size: 6.5px; font-family: 'Arial'; fill: #202124"> </tspan>
       <tspan x="45.880859" y="-0.367188" style="font-size: 6.5px; font-family: 'Arial'; fill: #202124">(</tspan>
       <tspan x="48.04541" y="-0.367188" style="font-size: 6.5px; font-family: 'Arial'; fill: #202124">µ</tspan>
       <tspan x="51.790527" y="-0.367188" style="font-size: 6.5px; font-family: 'Arial'; fill: #202124">A</tspan>
       <tspan x="56.125977" y="-0.367188" style="font-size: 6.5px; font-family: 'Arial'; fill: #202124">/</tspan>
       <tspan x="57.931885" y="-0.367188" style="font-size: 6.5px; font-family: 'Arial'; fill: #202124">c</tspan>
       <tspan x="61.181885" y="-0.367188" style="font-size: 6.5px; font-family: 'Arial'; fill: #202124">m</tspan>
       <tspan x="69.354741" y="-0.367188" style="font-size: 6.5px; font-family: 'Arial'; fill: #202124">)</tspan>
       <tspan x="66.655498" y="-2.729687" style="font-size: 4.55px; font-family: 'Arial'; fill: #202124">2</tspan>
      </text>
     </g>
    </g>
   </g>
   <g id="line2d_31">
    <path d="M 108.031496 190.693713 
L 276.994897 190.580017 
L 314.44084 190.3439 
L 338.187047 189.981472 
L 355.540045 189.496628 
L 369.23978 188.890295 
L 380.199569 188.190767 
L 389.332725 187.404668 
L 397.552567 186.488189 
L 404.859092 185.46126 
L 411.252302 184.358991 
L 417.645511 183.024551 
L 423.125406 181.659153 
L 428.6053 180.050687 
L 433.171878 178.493625 
L 437.738456 176.708783 
L 442.305035 174.662839 
L 445.958298 172.812603 
L 449.61156 170.748829 
L 453.264823 168.446871 
L 456.918086 165.879239 
L 460.571348 163.015274 
L 464.224611 159.820772 
L 467.877874 156.257588 
L 470.617821 153.317835 
L 473.357768 150.127125 
L 476.097715 146.664035 
L 478.837662 142.905314 
L 481.577609 138.825724 
L 484.317556 134.397874 
L 487.057503 129.592033 
L 489.79745 124.375935 
L 492.537397 118.714557 
L 495.277344 112.569887 
L 498.017291 105.900668 
L 500.757238 98.662122 
L 503.497185 90.805646 
L 506.237132 82.27849 
L 508.977079 73.023402 
L 511.23622 64.78931 
L 511.23622 64.78931 
" clip-path="url(#p5025fa587d)" style="fill: none; stroke: #205c85; stroke-width: 0.9; stroke-linecap: square"/>
   </g>
   <g id="line2d_32">
    <path d="M 108.031496 190.694174 
L 308.960946 190.584151 
L 347.320204 190.347211 
L 371.066412 189.988207 
L 388.41941 189.507944 
L 402.119145 188.907339 
L 413.078933 188.21442 
L 422.21209 187.435747 
L 430.431931 186.527926 
L 437.738456 185.510698 
L 444.131666 184.418843 
L 450.524876 183.09701 
L 456.00477 181.744511 
L 461.484664 180.15124 
L 466.051242 178.608888 
L 470.617821 176.840908 
L 475.184399 174.814292 
L 478.837662 172.981536 
L 482.490925 170.937258 
L 486.144187 168.657047 
L 489.79745 166.113672 
L 493.450713 163.276763 
L 497.103976 160.11244 
L 500.757238 156.582918 
L 504.410501 152.646048 
L 507.150448 149.39799 
L 509.890395 145.872657 
L 511.23622 144.028054 
L 511.23622 144.028054 
" clip-path="url(#p5025fa587d)" style="fill: none; stroke: #348678; stroke-width: 0.9; stroke-linecap: square"/>
   </g>
   <g id="line2d_33">
    <path d="M 108.031496 190.694345 
L 341.84031 190.585193 
L 380.199569 190.350492 
L 403.945776 189.994879 
L 421.298774 189.519153 
L 434.998509 188.924222 
L 445.958298 188.237849 
L 455.091454 187.466532 
L 463.311295 186.567288 
L 470.617821 185.55967 
L 477.011031 184.47813 
L 483.40424 183.168784 
L 488.884134 181.829062 
L 494.364029 180.250843 
L 498.930607 178.723062 
L 503.497185 176.971784 
L 508.063764 174.964314 
L 511.23622 173.397676 
L 511.23622 173.397676 
" clip-path="url(#p5025fa587d)" style="fill: none; stroke: #b45a48; stroke-width: 0.9; stroke-linecap: square"/>
   </g>
   <g id="patch_8">
    <path d="M 303.307087 198.425197 
L 303.307087 28.346457 
" style="fill: none; stroke: #202124; stroke-width: 0.6; stroke-linejoin: miter; stroke-linecap: square"/>
   </g>
   <g id="patch_9">
    <path d="M 479.055118 198.425197 
L 479.055118 28.346457 
" style="fill: none; stroke: #202124; stroke-width: 0.6; stroke-linejoin: miter; stroke-linecap: square"/>
   </g>
   <g id="patch_10">
    <path d="M 303.307087 198.425197 
L 479.055118 198.425197 
" style="fill: none; stroke: #202124; stroke-width: 0.6; stroke-linejoin: miter; stroke-linecap: square"/>
   </g>
   <g id="patch_11">
    <path d="M 303.307087 28.346457 
L 479.055118 28.346457 
" style="fill: none; stroke: #202124; stroke-width: 0.6; stroke-linejoin: miter; stroke-linecap: square"/>
   </g>
  </g>
  <g id="text_32">
   <text style="font-weight: 700; font-size: 8px; font-family: 'Arial'; text-anchor: start; fill: #202124" x="31.181102" y="20.993572" transform="rotate(-0 31.181102 20.993572)">a</text>
  </g>
  <g id="text_33">
   <text style="font-weight: 700; font-size: 8px; font-family: 'Arial'; text-anchor: start; fill: #202124" x="280.629921" y="20.993572" transform="rotate(-0 280.629921 20.993572)">b</text>
  </g>
 </g>
 <defs>
  <clipPath id="p7cee6a7ed2">
   <rect x="53.858268" y="28.346457" width="175.748031" height="170.07874"/>
  </clipPath>
  <clipPath id="p5025fa587d">
   <rect x="303.307087" y="28.346457" width="175.748031" height="170.07874"/>
  </clipPath>
 </defs>
</svg>
