<?xml version="1.0" encoding="utf-8" standalone="no"?>
<!DOCTYPE svg PUBLIC "-//W3C//DTD SVG 1.1//EN"
  "http://www.w3.org/Graphics/SVG/1.1/DTD/svg11.dtd">
<svg xmlns:xlink="http://www.w3.org/1999/xlink" width="510.23622pt" height="260.787402pt" viewBox="0 0 510.23622 260.787402" xmlns="http://www.w3.org/2000/svg" version="1.1">
 <metadata>
  <rdf:RDF xmlns:dc="http://purl.org/dc/elements/1.1/" xmlns:cc="http://creativecommons.org/ns#" xmlns:rdf="http://www.w3.org/1999/02/22-rdf-syntax-ns#">
   <cc:Work>
    <dc:type rdf:resource="http://purl.org/dc/dcmitype/StillImage"/>
    <dc:date>2026-10-01T15:30:51.240565</dc:date>
    <dc:format>image/svg+xml</dc:format>
    <dc:creator>
     <cc:Agent>
      <dc:title>Matplotlib v3.11.2, https://matplotlib.org/</dc:title>
     </cc:Agent>
    </dc:creator>
   </cc:Work>
  </rdf:RDF>
 </metadata>
 <defs>
  <style type="text/css">*{stroke-linejoin: round; stroke-linecap: butt}</style>
 </defs>
 <g id="figure_1">
  <g id="patch_1">
   <path d="M 0 260.787402
L 510.23622 260.787402
L 510.23622 0
L 0 0
z
" style="fill: #ffffff"/>
  </g>
  <g id="axes_1">
   <g id="patch_2">
    <path d="M 31.575378 236.671302
L 299.667317 236.671302
L 299.667317 18.156248
L 31.575378 18.156248
z
" style="fill: #ffffff"/>
   </g>
   <g id="matplotlib.axis_1">
    <g id="xtick_1">
     <g id="line2d_1">
      <defs>
       <path id="m615f08ceea" d="M 0 0
L 0 2.2
" style="stroke: #172c40; stroke-width: 0.55"/>
      </defs>
      <g>
       <use xlink:href="#m615f08ceea" x="31.575378" y="236.671302" style="fill: #172c40; stroke: #172c40; stroke-width: 0.55"/>
      </g>
     </g>
     <g id="text_1">
      <text style="font-size: 6px; font-family: 'Arial'; text-anchor: middle; fill: #172c40" x="31.575378" y="245.439466" transform="rotate(-0 31.575378 245.439466)">0</text>
     </g>
    </g>
    <g id="xtick_2">
     <g id="line2d_2">
      <g>
       <use xlink:href="#m615f08ceea" x="75.524876" y="236.671302" style="fill: #172c40; stroke: #172c40; stroke-width: 0.55"/>
      </g>
     </g>
     <g id="text_2">
      <text style="font-size: 6px; font-family: 'Arial'; text-anchor: middle; fill: #172c40" x="75.524876" y="245.439466" transform="rotate(-0 75.524876 245.439466)">10</text>
     </g>
    </g>
    <g id="xtick_3">
     <g id="line2d_3">
      <g>
       <use xlink:href="#m615f08ceea" x="119.474374" y="236.671302" style="fill: #172c40; stroke: #172c40; stroke-width: 0.55"/>
      </g>
     </g>
     <g id="text_3">
      <text style="font-size: 6px; font-family: 'Arial'; text-anchor: middle; fill: #172c40" x="119.474374" y="245.439466" transform="rotate(-0 119.474374 245.439466)">20</text>
     </g>
    </g>
    <g id="xtick_4">
     <g id="line2d_4">
      <g>
       <use xlink:href="#m615f08ceea" x="163.423873" y="236.671302" style="fill: #172c40; stroke: #172c40; stroke-width: 0.55"/>
      </g>
     </g>
     <g id="text_4">
      <text style="font-size: 6px; font-family: 'Arial'; text-anchor: middle; fill: #172c40" x="163.423873" y="245.439466" transform="rotate(-0 163.423873 245.439466)">30</text>
     </g>
    </g>
    <g id="xtick_5">
     <g id="line2d_5">
      <g>
       <use xlink:href="#m615f08ceea" x="207.373371" y="236.671302" style="fill: #172c40; stroke: #172c40; stroke-width: 0.55"/>
      </g>
     </g>
     <g id="text_5">
      <text style="font-size: 6px; font-family: 'Arial'; text-anchor: middle; fill: #172c40" x="207.373371" y="245.439466" transform="rotate(-0 207.373371 245.439466)">40</text>
     </g>
    </g>
    <g id="xtick_6">
     <g id="line2d_6">
      <g>
       <use xlink:href="#m615f08ceea" x="251.322869" y="236.671302" style="fill: #172c40; stroke: #172c40; stroke-width: 0.55"/>
      </g>
     </g>
     <g id="text_6">
      <text style="font-size: 6px; font-family: 'Arial'; text-anchor: middle; fill: #172c40" x="251.322869" y="245.439466" transform="rotate(-0 251.322869 245.439466)">50</text>
     </g>
    </g>
    <g id="xtick_7">
     <g id="line2d_7">
      <g>
       <use xlink:href="#m615f08ceea" x="295.272367" y="236.671302" style="fill: #172c40; stroke: #172c40; stroke-width: 0.55"/>
      </g>
     </g>
     <g id="text_7">
      <text style="font-size: 6px; font-family: 'Arial'; text-anchor: middle; fill: #172c40" x="295.272367" y="245.439466" transform="rotate(-0 295.272367 245.439466)">60</text>
     </g>
    </g>
    <g id="text_8">
     <text style="font-size: 6.5px; font-family: 'Arial'; text-anchor: middle; fill: #172c40" x="165.621348" y="255.434339" transform="rotate(-0 165.621348 255.434339)">Cycle number</text>
    </g>
   </g>
   <g id="matplotlib.axis_2">
    <g id="ytick_1">
     <g id="line2d_8">
      <defs>
       <path id="m6a09e12019" d="M 0 0
L -2.2 0
" style="stroke: #172c40; stroke-width: 0.55"/>
      </defs>
      <g>
       <use xlink:href="#m6a09e12019" x="31.575378" y="223.014111" style="fill: #172c40; stroke: #172c40; stroke-width: 0.55"/>
      </g>
     </g>
     <g id="text_9">
      <text style="font-size: 6px; font-family: 'Arial'; text-anchor: end; fill: #172c40" x="27.175378" y="225.198193" transform="rotate(-0 27.175378 225.198193)">110</text>
     </g>
    </g>
    <g id="ytick_2">
     <g id="line2d_9">
      <g>
       <use xlink:href="#m6a09e12019" x="31.575378" y="195.699729" style="fill: #172c40; stroke: #172c40; stroke-width: 0.55"/>
      </g>
     </g>
     <g id="text_10">
      <text style="font-size: 6px; font-family: 'Arial'; text-anchor: end; fill: #172c40" x="27.175378" y="197.883811" transform="rotate(-0 27.175378 197.883811)">120</text>
     </g>
    </g>
    <g id="ytick_3">
     <g id="line2d_10">
      <g>
       <use xlink:href="#m6a09e12019" x="31.575378" y="168.385348" style="fill: #172c40; stroke: #172c40; stroke-width: 0.55"/>
      </g>
     </g>
     <g id="text_11">
      <text style="font-size: 6px; font-family: 'Arial'; text-anchor: end; fill: #172c40" x="27.175378" y="170.56943" transform="rotate(-0 27.175378 170.56943)">130</text>
     </g>
    </g>
    <g id="ytick_4">
     <g id="line2d_11">
      <g>
       <use xlink:href="#m6a09e12019" x="31.575378" y="141.070966" style="fill: #172c40; stroke: #172c40; stroke-width: 0.55"/>
      </g>
     </g>
     <g id="text_12">
      <text style="font-size: 6px; font-family: 'Arial'; text-anchor: end; fill: #172c40" x="27.175378" y="143.255048" transform="rotate(-0 27.175378 143.255048)">140</text>
     </g>
    </g>
    <g id="ytick_5">
     <g id="line2d_12">
      <g>
       <use xlink:href="#m6a09e12019" x="31.575378" y="113.756584" style="fill: #172c40; stroke: #172c40; stroke-width: 0.55"/>
      </g>
     </g>
     <g id="text_13">
      <text style="font-size: 6px; font-family: 'Arial'; text-anchor: end; fill: #172c40" x="27.175378" y="115.940666" transform="rotate(-0 27.175378 115.940666)">150</text>
     </g>
    </g>
    <g id="ytick_6">
     <g id="line2d_13">
      <g>
       <use xlink:href="#m6a09e12019" x="31.575378" y="86.442202" style="fill: #172c40; stroke: #172c40; stroke-width: 0.55"/>
      </g>
     </g>
     <g id="text_14">
      <text style="font-size: 6px; font-family: 'Arial'; text-anchor: end; fill: #172c40" x="27.175378" y="88.626284" transform="rotate(-0 27.175378 88.626284)">160</text>
     </g>
    </g>
    <g id="ytick_7">
     <g id="line2d_14">
      <g>
       <use xlink:href="#m6a09e12019" x="31.575378" y="59.12782" style="fill: #172c40; stroke: #172c40; stroke-width: 0.55"/>
      </g>
     </g>
     <g id="text_15">
      <text style="font-size: 6px; font-family: 'Arial'; text-anchor: end; fill: #172c40" x="27.175378" y="61.311902" transform="rotate(-0 27.175378 61.311902)">170</text>
     </g>
    </g>
    <g id="ytick_8">
     <g id="line2d_15">
      <g>
       <use xlink:href="#m6a09e12019" x="31.575378" y="31.813439" style="fill: #172c40; stroke: #172c40; stroke-width: 0.55"/>
      </g>
     </g>
     <g id="text_16">
      <text style="font-size: 6px; font-family: 'Arial'; text-anchor: end; fill: #172c40" x="27.175378" y="33.997521" transform="rotate(-0 27.175378 33.997521)">180</text>
     </g>
    </g>
    <g id="text_17">
     <!-- Discharge capacity (mAh g$^{-1}$) -->
     <g style="fill: #172c40" transform="translate(11.735691 170.053775) rotate(-90)">
      <text>
       <tspan x="0" y="-0.367188" style="font-size: 6.5px; font-family: 'Arial'; fill: #172c40">D</tspan>
       <tspan x="4.694092" y="-0.367188" style="font-size: 6.5px; font-family: 'Arial'; fill: #172c40">i</tspan>
       <tspan x="6.138184" y="-0.367188" style="font-size: 6.5px; font-family: 'Arial'; fill: #172c40">s</tspan>
       <tspan x="9.388184" y="-0.367188" style="font-size: 6.5px; font-family: 'Arial'; fill: #172c40">c</tspan>
       <tspan x="12.638184" y="-0.367188" style="font-size: 6.5px; font-family: 'Arial'; fill: #172c40">h</tspan>
       <tspan x="16.253174" y="-0.367188" style="font-size: 6.5px; font-family: 'Arial'; fill: #172c40">a</tspan>
       <tspan x="19.868164" y="-0.367188" style="font-size: 6.5px; font-family: 'Arial'; fill: #172c40">r</tspan>
       <tspan x="22.032715" y="-0.367188" style="font-size: 6.5px; font-family: 'Arial'; fill: #172c40">g</tspan>
       <tspan x="25.647705" y="-0.367188" style="font-size: 6.5px; font-family: 'Arial'; fill: #172c40">e</tspan>
       <tspan x="29.262695" y="-0.367188" style="font-size: 6.5px; font-family: 'Arial'; fill: #172c40"> </tspan>
       <tspan x="31.068604" y="-0.367188" style="font-size: 6.5px; font-family: 'Arial'; fill: #172c40">c</tspan>
       <tspan x="34.318604" y="-0.367188" style="font-size: 6.5px; font-family: 'Arial'; fill: #172c40">a</tspan>
       <tspan x="37.933594" y="-0.367188" style="font-size: 6.5px; font-family: 'Arial'; fill: #172c40">p</tspan>
       <tspan x="41.548584" y="-0.367188" style="font-size: 6.5px; font-family: 'Arial'; fill: #172c40">a</tspan>
       <tspan x="45.163574" y="-0.367188" style="font-size: 6.5px; font-family: 'Arial'; fill: #172c40">c</tspan>
       <tspan x="48.413574" y="-0.367188" style="font-size: 6.5px; font-family: 'Arial'; fill: #172c40">i</tspan>
       <tspan x="49.857666" y="-0.367188" style="font-size: 6.5px; font-family: 'Arial'; fill: #172c40">t</tspan>
       <tspan x="51.663574" y="-0.367188" style="font-size: 6.5px; font-family: 'Arial'; fill: #172c40">y</tspan>
       <tspan x="54.913574" y="-0.367188" style="font-size: 6.5px; font-family: 'Arial'; fill: #172c40"> </tspan>
       <tspan x="56.719482" y="-0.367188" style="font-size: 6.5px; font-family: 'Arial'; fill: #172c40">(</tspan>
       <tspan x="58.884033" y="-0.367188" style="font-size: 6.5px; font-family: 'Arial'; fill: #172c40">m</tspan>
       <tspan x="64.298584" y="-0.367188" style="font-size: 6.5px; font-family: 'Arial'; fill: #172c40">A</tspan>
       <tspan x="68.634033" y="-0.367188" style="font-size: 6.5px; font-family: 'Arial'; fill: #172c40">h</tspan>
       <tspan x="72.249023" y="-0.367188" style="font-size: 6.5px; font-family: 'Arial'; fill: #172c40"> </tspan>
       <tspan x="74.054932" y="-0.367188" style="font-size: 6.5px; font-family: 'Arial'; fill: #172c40">g</tspan>
       <tspan x="83.085356" y="-0.367188" style="font-size: 6.5px; font-family: 'Arial'; fill: #172c40">)</tspan>
       <tspan x="77.728984" y="-2.729687" style="font-size: 4.55px; font-family: 'Arial'; fill: #172c40">−</tspan>
       <tspan x="80.386113" y="-2.729687" style="font-size: 4.55px; font-family: 'Arial'; fill: #172c40">1</tspan>
      </text>
     </g>
    </g>
   </g>
   <g id="line2d_16">
    <path d="M 35.970328 36.755675
L 40.365278 36.950318
L 44.760228 37.144905
L 49.155177 37.339384
L 53.550127 37.533808
L 57.945077 37.728149
L 62.340027 37.922409
L 66.734977 38.116587
L 71.129927 38.310683
L 75.524876 38.504697
L 79.919826 57.068589
L 84.314776 57.255119
L 88.709726 57.441567
L 93.104676 57.627933
L 97.499625 57.814244
L 101.894575 58.000447
L 106.289525 58.186621
L 110.684475 58.372687
L 115.079425 58.558698
L 119.474374 58.744627
L 123.869324 82.752603
L 128.264274 82.928862
L 132.659224 83.10504
L 137.054174 83.281163
L 141.449124 83.457205
L 145.844073 83.633164
L 150.239023 83.809068
L 154.633973 83.984891
L 159.028923 84.160659
L 163.423873 84.336345
L 167.818822 120.492174
L 172.213772 120.653329
L 176.608722 120.814429
L 181.003672 120.975447
L 185.398622 121.136411
L 189.793571 121.29732
L 194.188521 121.458147
L 198.583471 121.61892
L 202.978421 121.779637
L 207.373371 121.940273
L 211.768321 191.277203
L 216.16327 191.41006
L 220.55822 191.542863
L 224.95317 191.675611
L 229.34812 191.808304
L 233.74307 191.940943
L 238.138019 192.073527
L 242.532969 192.206056
L 246.927919 192.338531
L 251.322869 192.470951
L 255.717819 46.393309
L 260.112768 46.5841
L 264.507718 46.774837
L 268.902668 46.965464
L 273.297618 47.156036
L 277.692568 47.346527
L 282.087518 47.536935
L 286.482467 47.727262
L 290.877417 47.917534
L 295.272367 48.107724
" clip-path="url(#p29df15812c)" style="fill: none; stroke: #31577d; stroke-width: 0.8; stroke-linecap: square"/>
   </g>
   <g id="line2d_17">
    <path d="M 35.970328 51.820049
L 40.365278 52.102944
L 44.760228 52.385702
L 49.155177 52.66827
L 53.550127 52.950646
L 57.945077 53.232885
L 62.340027 53.514933
L 66.734977 53.796845
L 71.129927 54.078566
L 75.524876 54.360095
L 79.919826 76.590478
L 84.314776 76.858542
L 88.709726 77.126414
L 93.104676 77.394149
L 97.499625 77.661721
L 101.894575 77.929129
L 106.289525 78.196373
L 110.684475 78.463453
L 115.079425 78.730396
L 119.474374 78.997148
L 123.869324 107.071171
L 128.264274 107.320933
L 132.659224 107.570532
L 137.054174 107.819994
L 141.449124 108.06932
L 145.844073 108.318482
L 150.239023 108.567507
L 154.633973 108.816368
L 159.028923 109.065093
L 163.423873 109.313654
L 167.818822 150.241524
L 172.213772 150.465392
L 176.608722 150.689124
L 181.003672 150.912747
L 185.398622 151.136206
L 189.793571 151.359556
L 194.188521 151.582742
L 198.583471 151.805818
L 202.978421 152.028731
L 207.373371 152.251534
L 211.768321 226.599342
L 216.16327 226.777432
L 220.55822 226.955385
L 224.95317 227.133257
L 229.34812 227.310991
L 233.74307 227.488644
L 238.138019 227.666188
L 242.532969 227.843594
L 246.927919 228.020919
L 251.322869 228.198135
L 255.717819 65.759479
L 260.112768 66.034016
L 264.507718 66.308416
L 268.902668 66.582625
L 273.297618 66.856671
L 277.692568 67.130552
L 282.087518 67.404269
L 286.482467 67.67785
L 290.877417 67.95124
L 295.272367 68.224466
" clip-path="url(#p29df15812c)" style="fill: none; stroke: #bc4566; stroke-width: 0.8; stroke-linecap: square"/>
   </g>
   <g id="line2d_18">
    <path d="M 77.722351 236.671302
L 77.722351 18.156248
" clip-path="url(#p29df15812c)" style="fill: none; stroke: #ccd4dc; stroke-width: 0.5; stroke-linecap: square"/>
   </g>
   <g id="line2d_19">
    <path d="M 121.671849 236.671302
L 121.671849 18.156248
" clip-path="url(#p29df15812c)" style="fill: none; stroke: #ccd4dc; stroke-width: 0.5; stroke-linecap: square"/>
   </g>
   <g id="line2d_20">
    <path d="M 165.621348 236.671302
L 165.621348 18.156248
" clip-path="url(#p29df15812c)" style="fill: none; stroke: #ccd4dc; stroke-width: 0.5; stroke-linecap: square"/>
   </g>
   <g id="line2d_21">
    <path d="M 209.570846 236.671302
L 209.570846 18.156248
" clip-path="url(#p29df15812c)" style="fill: none; stroke: #ccd4dc; stroke-width: 0.5; stroke-linecap: square"/>
   </g>
   <g id="line2d_22">
    <path d="M 253.520344 236.671302
L 253.520344 18.156248
" clip-path="url(#p29df15812c)" style="fill: none; stroke: #ccd4dc; stroke-width: 0.5; stroke-linecap: square"/>
   </g>
   <g id="patch_3">
    <path d="M 31.575378 236.671302
L 31.575378 18.156248
" style="fill: none; stroke: #172c40; stroke-width: 0.55; stroke-linejoin: miter; stroke-linecap: square"/>
   </g>
   <g id="patch_4">
    <path d="M 299.667317 236.671302
L 299.667317 18.156248
" style="fill: none; stroke: #172c40; stroke-width: 0.55; stroke-linejoin: miter; stroke-linecap: square"/>
   </g>
   <g id="patch_5">
    <path d="M 31.575378 236.671302
L 299.667317 236.671302
" style="fill: none; stroke: #172c40; stroke-width: 0.55; stroke-linejoin: miter; stroke-linecap: square"/>
   </g>
   <g id="patch_6">
    <path d="M 31.575378 18.156248
L 299.667317 18.156248
" style="fill: none; stroke: #172c40; stroke-width: 0.55; stroke-linejoin: miter; stroke-linecap: square"/>
   </g>
   <g id="text_18">
    <text style="font-size: 5.7px; font-family: 'Arial'; text-anchor: middle; fill: #526476" x="55.747602" y="30.500318" transform="rotate(-0 55.747602 30.500318)">0.2 C</text>
   </g>
   <g id="text_19">
    <text style="font-size: 5.7px; font-family: 'Arial'; text-anchor: middle; fill: #526476" x="99.6971" y="30.500318" transform="rotate(-0 99.6971 30.500318)">0.5 C</text>
   </g>
   <g id="text_20">
    <text style="font-size: 5.7px; font-family: 'Arial'; text-anchor: middle; fill: #526476" x="143.646598" y="30.500318" transform="rotate(-0 143.646598 30.500318)">1 C</text>
   </g>
   <g id="text_21">
    <text style="font-size: 5.7px; font-family: 'Arial'; text-anchor: middle; fill: #526476" x="187.596097" y="30.500318" transform="rotate(-0 187.596097 30.500318)">2 C</text>
   </g>
   <g id="text_22">
    <text style="font-size: 5.7px; font-family: 'Arial'; text-anchor: middle; fill: #526476" x="231.545595" y="30.500318" transform="rotate(-0 231.545595 30.500318)">5 C</text>
   </g>
   <g id="text_23">
    <text style="font-size: 5.7px; font-family: 'Arial'; text-anchor: middle; fill: #526476" x="275.495093" y="30.500318" transform="rotate(-0 275.495093 30.500318)">0.2 C</text>
   </g>
   <g id="text_24">
    <text style="font-weight: 700; font-size: 8px; font-family: 'Arial'; text-anchor: end; fill: #172c40" x="7.447104" y="8.824627" transform="rotate(-0 7.447104 8.824627)">a</text>
   </g>
   <g id="legend_1">
    <g id="line2d_23">
     <path d="M 36.975378 219.277513
L 42.975378 219.277513
L 48.975378 219.277513
" style="fill: none; stroke: #31577d; stroke-width: 0.8; stroke-linecap: square"/>
    </g>
    <g id="text_25">
     <text style="font-size: 6px; font-family: 'Arial'; text-anchor: start; fill: #172c40" x="53.775378" y="221.377513" transform="rotate(-0 53.775378 221.377513)">Electrolyte A</text>
    </g>
    <g id="line2d_24">
     <path d="M 36.975378 227.90849
L 42.975378 227.90849
L 48.975378 227.90849
" style="fill: none; stroke: #bc4566; stroke-width: 0.8; stroke-linecap: square"/>
    </g>
    <g id="text_26">
     <text style="font-size: 6px; font-family: 'Arial'; text-anchor: start; fill: #172c40" x="53.775378" y="230.00849" transform="rotate(-0 53.775378 230.00849)">Electrolyte B</text>
    </g>
   </g>
  </g>
  <g id="axes_2">
   <g id="patch_7">
    <path d="M 328.508021 236.671302
L 507.23598 236.671302
L 507.23598 18.156248
L 328.508021 18.156248
z
" style="fill: #ffffff"/>
   </g>
   <g id="matplotlib.axis_3">
    <g id="xtick_8">
     <g id="line2d_25">
      <g>
       <use xlink:href="#m615f08ceea" x="328.508021" y="236.671302" style="fill: #172c40; stroke: #172c40; stroke-width: 0.55"/>
      </g>
     </g>
     <g id="text_27">
      <text style="font-size: 6px; font-family: 'Arial'; text-anchor: middle; fill: #172c40" x="328.508021" y="245.439466" transform="rotate(-0 328.508021 245.439466)">0</text>
     </g>
    </g>
    <g id="xtick_9">
     <g id="line2d_26">
      <g>
       <use xlink:href="#m615f08ceea" x="352.660448" y="236.671302" style="fill: #172c40; stroke: #172c40; stroke-width: 0.55"/>
      </g>
     </g>
     <g id="text_28">
      <text style="font-size: 6px; font-family: 'Arial'; text-anchor: middle; fill: #172c40" x="352.660448" y="245.439466" transform="rotate(-0 352.660448 245.439466)">25</text>
     </g>
    </g>
    <g id="xtick_10">
     <g id="line2d_27">
      <g>
       <use xlink:href="#m615f08ceea" x="376.812875" y="236.671302" style="fill: #172c40; stroke: #172c40; stroke-width: 0.55"/>
      </g>
     </g>
     <g id="text_29">
      <text style="font-size: 6px; font-family: 'Arial'; text-anchor: middle; fill: #172c40" x="376.812875" y="245.439466" transform="rotate(-0 376.812875 245.439466)">50</text>
     </g>
    </g>
    <g id="xtick_11">
     <g id="line2d_28">
      <g>
       <use xlink:href="#m615f08ceea" x="400.965302" y="236.671302" style="fill: #172c40; stroke: #172c40; stroke-width: 0.55"/>
      </g>
     </g>
     <g id="text_30">
      <text style="font-size: 6px; font-family: 'Arial'; text-anchor: middle; fill: #172c40" x="400.965302" y="245.439466" transform="rotate(-0 400.965302 245.439466)">75</text>
     </g>
    </g>
    <g id="xtick_12">
     <g id="line2d_29">
      <g>
       <use xlink:href="#m615f08ceea" x="425.117729" y="236.671302" style="fill: #172c40; stroke: #172c40; stroke-width: 0.55"/>
      </g>
     </g>
     <g id="text_31">
      <text style="font-size: 6px; font-family: 'Arial'; text-anchor: middle; fill: #172c40" x="425.117729" y="245.439466" transform="rotate(-0 425.117729 245.439466)">100</text>
     </g>
    </g>
    <g id="xtick_13">
     <g id="line2d_30">
      <g>
       <use xlink:href="#m615f08ceea" x="449.270156" y="236.671302" style="fill: #172c40; stroke: #172c40; stroke-width: 0.55"/>
      </g>
     </g>
     <g id="text_32">
      <text style="font-size: 6px; font-family: 'Arial'; text-anchor: middle; fill: #172c40" x="449.270156" y="245.439466" transform="rotate(-0 449.270156 245.439466)">125</text>
     </g>
    </g>
    <g id="xtick_14">
     <g id="line2d_31">
      <g>
       <use xlink:href="#m615f08ceea" x="473.422583" y="236.671302" style="fill: #172c40; stroke: #172c40; stroke-width: 0.55"/>
      </g>
     </g>
     <g id="text_33">
      <text style="font-size: 6px; font-family: 'Arial'; text-anchor: middle; fill: #172c40" x="473.422583" y="245.439466" transform="rotate(-0 473.422583 245.439466)">150</text>
     </g>
    </g>
    <g id="xtick_15">
     <g id="line2d_32">
      <g>
       <use xlink:href="#m615f08ceea" x="497.57501" y="236.671302" style="fill: #172c40; stroke: #172c40; stroke-width: 0.55"/>
      </g>
     </g>
     <g id="text_34">
      <text style="font-size: 6px; font-family: 'Arial'; text-anchor: middle; fill: #172c40" x="497.57501" y="245.439466" transform="rotate(-0 497.57501 245.439466)">175</text>
     </g>
    </g>
    <g id="text_35">
     <!-- Specific capacity (mAh g$^{-1}$) -->
     <g style="fill: #172c40" transform="translate(378.482001 256.357162)">
      <text>
       <tspan x="0" y="-0.367188" style="font-size: 6.5px; font-family: 'Arial'; fill: #172c40">S</tspan>
       <tspan x="4.335449" y="-0.367188" style="font-size: 6.5px; font-family: 'Arial'; fill: #172c40">p</tspan>
       <tspan x="7.950439" y="-0.367188" style="font-size: 6.5px; font-family: 'Arial'; fill: #172c40">e</tspan>
       <tspan x="11.56543" y="-0.367188" style="font-size: 6.5px; font-family: 'Arial'; fill: #172c40">c</tspan>
       <tspan x="14.81543" y="-0.367188" style="font-size: 6.5px; font-family: 'Arial'; fill: #172c40">i</tspan>
       <tspan x="16.259521" y="-0.367188" style="font-size: 6.5px; font-family: 'Arial'; fill: #172c40">f</tspan>
       <tspan x="18.06543" y="-0.367188" style="font-size: 6.5px; font-family: 'Arial'; fill: #172c40">i</tspan>
       <tspan x="19.509521" y="-0.367188" style="font-size: 6.5px; font-family: 'Arial'; fill: #172c40">c</tspan>
       <tspan x="22.759521" y="-0.367188" style="font-size: 6.5px; font-family: 'Arial'; fill: #172c40"> </tspan>
       <tspan x="24.56543" y="-0.367188" style="font-size: 6.5px; font-family: 'Arial'; fill: #172c40">c</tspan>
       <tspan x="27.81543" y="-0.367188" style="font-size: 6.5px; font-family: 'Arial'; fill: #172c40">a</tspan>
       <tspan x="31.43042" y="-0.367188" style="font-size: 6.5px; font-family: 'Arial'; fill: #172c40">p</tspan>
       <tspan x="35.04541" y="-0.367188" style="font-size: 6.5px; font-family: 'Arial'; fill: #172c40">a</tspan>
       <tspan x="38.6604" y="-0.367188" style="font-size: 6.5px; font-family: 'Arial'; fill: #172c40">c</tspan>
       <tspan x="41.9104" y="-0.367188" style="font-size: 6.5px; font-family: 'Arial'; fill: #172c40">i</tspan>
       <tspan x="43.354492" y="-0.367188" style="font-size: 6.5px; font-family: 'Arial'; fill: #172c40">t</tspan>
       <tspan x="45.1604" y="-0.367188" style="font-size: 6.5px; font-family: 'Arial'; fill: #172c40">y</tspan>
       <tspan x="48.4104" y="-0.367188" style="font-size: 6.5px; font-family: 'Arial'; fill: #172c40"> </tspan>
       <tspan x="50.216309" y="-0.367188" style="font-size: 6.5px; font-family: 'Arial'; fill: #172c40">(</tspan>
       <tspan x="52.380859" y="-0.367188" style="font-size: 6.5px; font-family: 'Arial'; fill: #172c40">m</tspan>
       <tspan x="57.79541" y="-0.367188" style="font-size: 6.5px; font-family: 'Arial'; fill: #172c40">A</tspan>
       <tspan x="62.130859" y="-0.367188" style="font-size: 6.5px; font-family: 'Arial'; fill: #172c40">h</tspan>
       <tspan x="65.74585" y="-0.367188" style="font-size: 6.5px; font-family: 'Arial'; fill: #172c40"> </tspan>
       <tspan x="67.551758" y="-0.367188" style="font-size: 6.5px; font-family: 'Arial'; fill: #172c40">g</tspan>
       <tspan x="76.582183" y="-0.367188" style="font-size: 6.5px; font-family: 'Arial'; fill: #172c40">)</tspan>
       <tspan x="71.225811" y="-2.729687" style="font-size: 4.55px; font-family: 'Arial'; fill: #172c40">−</tspan>
       <tspan x="73.882939" y="-2.729687" style="font-size: 4.55px; font-family: 'Arial'; fill: #172c40">1</tspan>
      </text>
     </g>
    </g>
   </g>
   <g id="matplotlib.axis_4">
    <g id="ytick_9">
     <g id="line2d_33">
      <g>
       <use xlink:href="#m6a09e12019" x="328.508021" y="229.842707" style="fill: #172c40; stroke: #172c40; stroke-width: 0.55"/>
      </g>
     </g>
     <g id="text_36">
      <text style="font-size: 6px; font-family: 'Arial'; text-anchor: end; fill: #172c40" x="324.108021" y="232.026789" transform="rotate(-0 324.108021 232.026789)">2.8</text>
     </g>
    </g>
    <g id="ytick_10">
     <g id="line2d_34">
      <g>
       <use xlink:href="#m6a09e12019" x="328.508021" y="202.528325" style="fill: #172c40; stroke: #172c40; stroke-width: 0.55"/>
      </g>
     </g>
     <g id="text_37">
      <text style="font-size: 6px; font-family: 'Arial'; text-anchor: end; fill: #172c40" x="324.108021" y="204.712407" transform="rotate(-0 324.108021 204.712407)">3.0</text>
     </g>
    </g>
    <g id="ytick_11">
     <g id="line2d_35">
      <g>
       <use xlink:href="#m6a09e12019" x="328.508021" y="175.213943" style="fill: #172c40; stroke: #172c40; stroke-width: 0.55"/>
      </g>
     </g>
     <g id="text_38">
      <text style="font-size: 6px; font-family: 'Arial'; text-anchor: end; fill: #172c40" x="324.108021" y="177.398025" transform="rotate(-0 324.108021 177.398025)">3.2</text>
     </g>
    </g>
    <g id="ytick_12">
     <g id="line2d_36">
      <g>
       <use xlink:href="#m6a09e12019" x="328.508021" y="147.899561" style="fill: #172c40; stroke: #172c40; stroke-width: 0.55"/>
      </g>
     </g>
     <g id="text_39">
      <text style="font-size: 6px; font-family: 'Arial'; text-anchor: end; fill: #172c40" x="324.108021" y="150.083643" transform="rotate(-0 324.108021 150.083643)">3.4</text>
     </g>
    </g>
    <g id="ytick_13">
     <g id="line2d_37">
      <g>
       <use xlink:href="#m6a09e12019" x="328.508021" y="120.585179" style="fill: #172c40; stroke: #172c40; stroke-width: 0.55"/>
      </g>
     </g>
     <g id="text_40">
      <text style="font-size: 6px; font-family: 'Arial'; text-anchor: end; fill: #172c40" x="324.108021" y="122.769261" transform="rotate(-0 324.108021 122.769261)">3.6</text>
     </g>
    </g>
    <g id="ytick_14">
     <g id="line2d_38">
      <g>
       <use xlink:href="#m6a09e12019" x="328.508021" y="93.270798" style="fill: #172c40; stroke: #172c40; stroke-width: 0.55"/>
      </g>
     </g>
     <g id="text_41">
      <text style="font-size: 6px; font-family: 'Arial'; text-anchor: end; fill: #172c40" x="324.108021" y="95.45488" transform="rotate(-0 324.108021 95.45488)">3.8</text>
     </g>
    </g>
    <g id="ytick_15">
     <g id="line2d_39">
      <g>
       <use xlink:href="#m6a09e12019" x="328.508021" y="65.956416" style="fill: #172c40; stroke: #172c40; stroke-width: 0.55"/>
      </g>
     </g>
     <g id="text_42">
      <text style="font-size: 6px; font-family: 'Arial'; text-anchor: end; fill: #172c40" x="324.108021" y="68.140498" transform="rotate(-0 324.108021 68.140498)">4.0</text>
     </g>
    </g>
    <g id="ytick_16">
     <g id="line2d_40">
      <g>
       <use xlink:href="#m6a09e12019" x="328.508021" y="38.642034" style="fill: #172c40; stroke: #172c40; stroke-width: 0.55"/>
      </g>
     </g>
     <g id="text_43">
      <text style="font-size: 6px; font-family: 'Arial'; text-anchor: end; fill: #172c40" x="324.108021" y="40.826116" transform="rotate(-0 324.108021 40.826116)">4.2</text>
     </g>
    </g>
    <g id="text_44">
     <text style="font-size: 6.5px; font-family: 'Arial'; text-anchor: middle; fill: #172c40" x="310.399975" y="127.413775" transform="rotate(-90 310.399975 127.413775)">Voltage (V)</text>
    </g>
   </g>
   <g id="line2d_41">
    <path d="M 328.508021 24.984843
L 395.474558 69.046082
L 408.435823 77.859341
L 417.076666 83.986776
L 423.557299 88.810496
L 430.037931 93.922792
L 435.438458 98.483474
L 439.75888 102.386563
L 444.079302 106.570034
L 448.399724 111.092339
L 452.720146 116.021902
L 455.960461 120.033292
L 459.200778 124.355247
L 462.441094 129.029421
L 465.68141 134.101565
L 468.921727 139.622348
L 472.162043 145.647081
L 475.402359 152.236812
L 478.642676 159.458188
L 481.882991 167.383729
L 485.123308 176.093056
L 488.363624 185.672483
L 491.60394 196.215562
L 494.844257 207.824174
L 498.084573 220.608397
L 500.244784 229.842707
L 500.244784 229.842707
" clip-path="url(#p1ec07cd8e1)" style="fill: none; stroke: #a2bacd; stroke-width: 0.9; stroke-linecap: square"/>
   </g>
   <g id="line2d_42">
    <path d="M 328.508021 24.984843
L 389.145916 69.046082
L 400.882283 77.859341
L 408.706528 83.986776
L 415.552741 89.639897
L 421.420925 94.810373
L 426.311077 99.435927
L 430.223199 103.404024
L 434.135323 107.666296
L 438.047445 112.283656
L 441.959567 117.326847
L 444.893658 121.437388
L 447.82775 125.872015
L 450.761842 130.673473
L 453.695934 135.889428
L 456.630025 141.571638
L 459.564116 147.777739
L 462.498208 154.57028
L 465.4323 162.017956
L 468.366392 170.195745
L 471.300484 179.185044
L 474.234575 189.074899
L 477.168667 199.961456
L 480.102759 211.949328
L 483.036851 225.151325
L 484.014881 229.842707
L 484.014881 229.842707
" clip-path="url(#p1ec07cd8e1)" style="fill: none; stroke: #668aa8; stroke-width: 0.9; stroke-linecap: square"/>
   </g>
   <g id="line2d_43">
    <path d="M 328.508021 24.984843
L 374.951393 69.769777
L 383.797749 78.610896
L 389.695321 84.774659
L 394.855696 90.477629
L 399.278873 95.709562
L 402.964855 100.403402
L 406.650837 105.494803
L 409.599623 109.926425
L 412.548408 114.747277
L 415.497193 120.033292
L 418.445979 125.872015
L 420.657568 130.673473
L 422.869157 135.889428
L 425.080747 141.571638
L 427.292335 147.777739
L 429.503925 154.57028
L 431.715514 162.017956
L 433.927103 170.195745
L 436.138692 179.185044
L 438.350281 189.074899
L 440.56187 199.961456
L 442.773459 211.949328
L 444.985049 225.151325
L 445.722245 229.842707
L 445.722245 229.842707
" clip-path="url(#p1ec07cd8e1)" style="fill: none; stroke: #31577d; stroke-width: 0.9; stroke-linecap: square"/>
   </g>
   <g id="line2d_44">
    <path d="M 328.508021 24.984843
L 394.148532 69.046082
L 406.853146 77.859341
L 415.322889 83.986776
L 422.733914 89.639897
L 428.027504 93.922792
L 433.321094 98.483474
L 437.555965 102.386563
L 441.790837 106.570034
L 446.025709 111.092339
L 450.26058 116.021902
L 453.436734 120.033292
L 456.612888 124.355247
L 459.789041 129.029421
L 462.965195 134.101565
L 466.141349 139.622348
L 469.317503 145.647081
L 472.493656 152.236812
L 475.66981 159.458188
L 478.845964 167.383729
L 482.022117 176.093056
L 485.198271 185.672483
L 488.374425 196.215562
L 491.550579 207.824174
L 494.726732 220.608397
L 496.844168 229.842707
L 496.844168 229.842707
" clip-path="url(#p1ec07cd8e1)" style="fill: none; stroke: #00857f; stroke-width: 0.9; stroke-linecap: square"/>
   </g>
   <g id="patch_8">
    <path d="M 328.508021 236.671302
L 328.508021 18.156248
" style="fill: none; stroke: #172c40; stroke-width: 0.55; stroke-linejoin: miter; stroke-linecap: square"/>
   </g>
   <g id="patch_9">
    <path d="M 507.23598 236.671302
L 507.23598 18.156248
" style="fill: none; stroke: #172c40; stroke-width: 0.55; stroke-linejoin: miter; stroke-linecap: square"/>
   </g>
   <g id="patch_10">
    <path d="M 328.508021 236.671302
L 507.23598 236.671302
" style="fill: none; stroke: #172c40; stroke-width: 0.55; stroke-linejoin: miter; stroke-linecap: square"/>
   </g>
   <g id="patch_11">
    <path d="M 328.508021 18.156248
L 507.23598 18.156248
" style="fill: none; stroke: #172c40; stroke-width: 0.55; stroke-linejoin: miter; stroke-linecap: square"/>
   </g>
   <g id="text_45">
    <text style="font-weight: 700; font-size: 8px; font-family: 'Arial'; text-anchor: end; fill: #172c40" x="312.422505" y="8.824627" transform="rotate(-0 312.422505 8.824627)">b</text>
   </g>
   <g id="legend_2">
    <g id="line2d_45">
     <path d="M 333.368021 205.481134
L 336.338021 205.481134
L 339.308021 205.481134
" style="fill: none; stroke: #a2bacd; stroke-width: 0.9; stroke-linecap: square"/>
    </g>
    <g id="text_46">
     <text style="font-size: 5.4px; font-family: 'Arial'; text-anchor: start; fill: #172c40" x="343.628021" y="207.371134" transform="rotate(-0 343.628021 207.371134)">0.2 C · cycle 7</text>
    </g>
    <g id="line2d_46">
     <path d="M 333.368021 213.249013
L 336.338021 213.249013
L 339.308021 213.249013
" style="fill: none; stroke: #668aa8; stroke-width: 0.9; stroke-linecap: square"/>
    </g>
    <g id="text_47">
     <text style="font-size: 5.4px; font-family: 'Arial'; text-anchor: start; fill: #172c40" x="343.628021" y="215.139013" transform="rotate(-0 343.628021 215.139013)">1.0 C · cycle 27</text>
    </g>
    <g id="line2d_47">
     <path d="M 333.368021 221.016892
L 336.338021 221.016892
L 339.308021 221.016892
" style="fill: none; stroke: #31577d; stroke-width: 0.9; stroke-linecap: square"/>
    </g>
    <g id="text_48">
     <text style="font-size: 5.4px; font-family: 'Arial'; text-anchor: start; fill: #172c40" x="343.628021" y="222.906892" transform="rotate(-0 343.628021 222.906892)">5.0 C · cycle 47</text>
    </g>
    <g id="line2d_48">
     <path d="M 333.368021 228.784771
L 336.338021 228.784771
L 339.308021 228.784771
" style="fill: none; stroke: #00857f; stroke-width: 0.9; stroke-linecap: square"/>
    </g>
    <g id="text_49">
     <text style="font-size: 5.4px; font-family: 'Arial'; text-anchor: start; fill: #172c40" x="343.628021" y="230.674771" transform="rotate(-0 343.628021 230.674771)">0.2 C · cycle 57</text>
    </g>
   </g>
  </g>
 </g>
 <defs>
  <clipPath id="p29df15812c">
   <rect x="31.575378" y="18.156248" width="268.091939" height="218.515055"/>
  </clipPath>
  <clipPath id="p1ec07cd8e1">
   <rect x="328.508021" y="18.156248" width="178.727959" height="218.515055"/>
  </clipPath>
 </defs>
</svg>
